<svg width="49" height="57" viewBox="0 0 49 57" fill="none" xmlns="http://www.w3.org/2000/svg">
<g filter="url(#filter0_d_835_6383)">
<path d="M16 28.9131H32V47.2241L24 44.5538L16 47.2241V28.9131Z" fill="#FDFD37"/>
</g>
<g filter="url(#filter1_d_835_6383)">
<circle cx="24.5" cy="23.4131" r="17.5" fill="#FFFF11"/>
<circle cx="24.5" cy="23.4131" r="16.5" stroke="white" stroke-opacity="0.64" stroke-width="2"/>
</g>
<path d="M24.4679 17.9131V17.0381C24.1677 17.0381 23.8885 17.192 23.7281 17.4458L24.4679 17.9131ZM24.5379 17.9131L25.2777 17.4458C25.1174 17.192 24.8381 17.0381 24.5379 17.0381V17.9131ZM21.4506 22.6905L20.8189 23.2959C21.0052 23.4903 21.2705 23.5881 21.5383 23.5611C21.8062 23.5341 22.0467 23.3853 22.1904 23.1577L21.4506 22.6905ZM18.3675 19.4733L18.9992 18.8678C18.8063 18.6666 18.5292 18.5693 18.2528 18.6058C17.9765 18.6423 17.7341 18.8083 17.6002 19.0527L18.3675 19.4733ZM30.4648 19.6544L31.2589 19.2869C31.1374 19.0244 30.8941 18.8389 30.6088 18.7913C30.3235 18.7438 30.0332 18.8402 29.8331 19.049L30.4648 19.6544ZM27.5552 22.6905L26.8154 23.1577C26.9592 23.3853 27.1997 23.5341 27.4675 23.5611C27.7354 23.5881 28.0007 23.4903 28.187 23.2959L27.5552 22.6905ZM24.4679 18.7881H24.5379V17.0381H24.4679V18.7881ZM23.7281 17.4458L20.7108 22.2232L22.1904 23.1577L25.2077 18.3803L23.7281 17.4458ZM22.0824 22.0851L18.9992 18.8678L17.7357 20.0787L20.8189 23.2959L22.0824 22.0851ZM18.875 20.9131C18.875 20.542 18.9694 20.1956 19.1348 19.8938L17.6002 19.0527C17.297 19.6058 17.125 20.2406 17.125 20.9131H18.875ZM18.875 24.9996V20.9131H17.125V24.9996H18.875ZM21 27.1246C19.8264 27.1246 18.875 26.1732 18.875 24.9996H17.125C17.125 27.1397 18.8599 28.8746 21 28.8746V27.1246ZM27.7408 27.1246H21V28.8746H27.7408V27.1246ZM29.8658 24.9996C29.8658 26.1732 28.9144 27.1246 27.7408 27.1246V28.8746C29.8809 28.8746 31.6158 27.1397 31.6158 24.9996H29.8658ZM29.8658 20.9131V24.9996H31.6158V20.9131H29.8658ZM29.6707 20.0219C29.7957 20.2919 29.8658 20.5931 29.8658 20.9131H31.6158C31.6158 20.3341 31.4882 19.7825 31.2589 19.2869L29.6707 20.0219ZM29.8331 19.049L26.9235 22.0851L28.187 23.2959L31.0965 20.2598L29.8331 19.049ZM28.295 22.2232L25.2777 17.4458L23.7981 18.3803L26.8154 23.1577L28.295 22.2232Z" fill="black"/>
<defs>
<filter id="filter0_d_835_6383" x="9" y="23.9131" width="30" height="32.3105" filterUnits="userSpaceOnUse" color-interpolation-filters="sRGB">
<feFlood flood-opacity="0" result="BackgroundImageFix"/>
<feColorMatrix in="SourceAlpha" type="matrix" values="0 0 0 0 0 0 0 0 0 0 0 0 0 0 0 0 0 0 127 0" result="hardAlpha"/>
<feOffset dy="2"/>
<feGaussianBlur stdDeviation="3.5"/>
<feComposite in2="hardAlpha" operator="out"/>
<feColorMatrix type="matrix" values="0 0 0 0 0 0 0 0 0 0 0 0 0 0 0 0 0 0 0.1 0"/>
<feBlend mode="normal" in2="BackgroundImageFix" result="effect1_dropShadow_835_6383"/>
<feBlend mode="normal" in="SourceGraphic" in2="effect1_dropShadow_835_6383" result="shape"/>
</filter>
<filter id="filter1_d_835_6383" x="0" y="0.913086" width="49" height="49" filterUnits="userSpaceOnUse" color-interpolation-filters="sRGB">
<feFlood flood-opacity="0" result="BackgroundImageFix"/>
<feColorMatrix in="SourceAlpha" type="matrix" values="0 0 0 0 0 0 0 0 0 0 0 0 0 0 0 0 0 0 127 0" result="hardAlpha"/>
<feOffset dy="2"/>
<feGaussianBlur stdDeviation="3.5"/>
<feComposite in2="hardAlpha" operator="out"/>
<feColorMatrix type="matrix" values="0 0 0 0 0 0 0 0 0 0 0 0 0 0 0 0 0 0 0.1 0"/>
<feBlend mode="normal" in2="BackgroundImageFix" result="effect1_dropShadow_835_6383"/>
<feBlend mode="normal" in="SourceGraphic" in2="effect1_dropShadow_835_6383" result="shape"/>
</filter>
</defs>
</svg>
