<svg width="20" height="21" viewBox="0 0 20 21" fill="none" xmlns="http://www.w3.org/2000/svg">
<path d="M5.50781 9.39648C6.75781 11.8184 8.59375 13.6543 11.0156 14.9043L12.8516 13.0684C13.112 12.8079 13.3984 12.7428 13.7109 12.873C14.6484 13.1855 15.638 13.3418 16.6797 13.3418C16.9141 13.3418 17.1094 13.4199 17.2656 13.5762C17.4219 13.7324 17.5 13.9277 17.5 14.1621V17.0918C17.5 17.3262 17.4219 17.5215 17.2656 17.6777C17.1094 17.834 16.9141 17.9121 16.6797 17.9121C12.7734 17.9121 9.42708 16.5319 6.64062 13.7715C3.88021 10.985 2.5 7.63867 2.5 3.73242C2.5 3.49805 2.57812 3.30273 2.73438 3.14648C2.89062 2.99023 3.08594 2.91211 3.32031 2.91211H6.25C6.48438 2.91211 6.67969 2.99023 6.83594 3.14648C6.99219 3.30273 7.07031 3.49805 7.07031 3.73242C7.07031 4.77409 7.22656 5.76367 7.53906 6.70117C7.64323 7.03971 7.57812 7.32617 7.34375 7.56055L5.50781 9.39648Z" fill="black"/>
</svg>
